<svg width="90" height="60" viewBox="0 0 90 60" fill="none" xmlns="http://www.w3.org/2000/svg">
<g clip-path="url(#clip0_3659_9550)">
<path d="M0 7.5C0 3.35786 3.35786 0 7.5 0H82.5C86.6421 0 90 3.35786 90 7.5V52.5C90 56.6421 86.6421 60 82.5 60H7.5C3.35786 60 0 56.6421 0 52.5V7.5Z" fill="#D4DEF7"/>
<path d="M66.4176 18.5077L64.6762 22.3465H68.1685L66.4176 18.5077ZM46.323 20.8865C46.6512 20.7307 46.8445 20.3919 46.8445 19.9711C46.8445 19.5587 46.6414 19.26 46.3133 19.1197C46.0143 18.9641 45.5544 18.9461 45.1134 18.9461H41.9979V21.0851H45.0716C45.5638 21.0852 45.9752 21.0786 46.323 20.8865ZM6.40249 18.5077L4.68079 22.3465H8.13456L6.40249 18.5077ZM86.5619 43.1006H81.676V41.0351H86.5422C87.0246 41.0351 87.3625 40.9776 87.5659 40.7965C87.7583 40.6351 87.867 40.407 87.865 40.1685C87.865 39.8878 87.7424 39.665 87.5557 39.5317C87.3725 39.3846 87.1049 39.3177 86.6643 39.3177C84.2887 39.2443 81.325 39.3844 81.325 36.3364C81.325 34.9396 82.3001 33.469 84.9552 33.469H89.9949V31.5526H85.3125C83.8995 31.5526 82.8728 31.8605 82.1459 32.3394V31.5526H75.2202C74.1128 31.5526 72.8129 31.8023 72.1981 32.3394V31.5526H59.8297V32.3394C58.8456 31.6933 57.1845 31.5526 56.4183 31.5526H48.2602V32.3394C47.4817 31.6533 45.7496 31.5526 44.6945 31.5526H35.5643L33.4753 33.6096L31.5185 31.5526H17.8797V44.9934H31.2611L33.4137 42.9035L35.4416 44.9934L43.69 45V41.8382H44.5011C45.5955 41.8542 46.8862 41.8138 48.0253 41.3659V44.993H54.8287V41.4897H55.1569C55.5755 41.4897 55.6171 41.5057 55.6171 41.8864V44.9922H76.2852C77.5974 44.9922 78.9691 44.687 79.7285 44.1318V44.9922H86.2844C87.6485 44.9922 88.9809 44.8182 89.9946 44.3729V41.8691C89.3803 42.6866 88.1822 43.1011 86.5617 43.1011L86.5619 43.1006ZM44.6095 39.9269H41.4525V43.1576H36.5349L33.4195 39.9692L30.1819 43.1576H20.1601V33.5258H30.3361L33.4488 36.6831L36.6669 33.5258H44.7514C46.7593 33.5258 49.0152 34.0316 49.0152 36.699C49.0152 39.3747 46.821 39.9269 44.6095 39.9269ZM59.7898 39.4902C60.1472 39.9604 60.1987 40.3993 60.2091 41.2483V43.1578H57.6688V41.9528C57.6688 41.3734 57.7303 40.5153 57.2598 40.0674C56.8906 39.7225 56.3268 39.6401 55.4035 39.6401H52.6997V43.1578H50.1576V33.5259H55.9985C57.2799 33.5259 58.2126 33.5777 59.0429 33.9804C59.8414 34.4193 60.3439 35.0205 60.3439 36.1193C60.3437 37.6565 59.2167 38.4408 58.5507 38.6818C59.1135 38.8708 59.5737 39.2097 59.7898 39.4902ZM70.241 35.5178H64.3163V37.2688H70.0962V39.2341H64.3163V41.1505L70.241 41.1591V43.1576H61.7967V33.5258H70.241V35.5178ZM76.7424 43.1575H71.8148V41.0921H76.7227C77.2028 41.0921 77.543 41.0344 77.7563 40.8535C77.9302 40.7046 78.0552 40.488 78.0552 40.2257C78.0552 39.9448 77.9198 39.722 77.7465 39.5883C77.5528 39.4415 77.2857 39.375 76.8454 39.375C74.4793 39.3011 71.5161 39.4413 71.5161 36.3935C71.5161 34.9964 72.4811 33.5259 75.1335 33.5259H80.2059V35.5757H75.5645C75.1044 35.5757 74.8054 35.5917 74.551 35.7501C74.2735 35.9061 74.1708 36.1374 74.1708 36.4427C74.1708 36.806 74.4062 37.0534 74.7244 37.1602C74.9914 37.2447 75.2779 37.2693 75.709 37.2693L77.0711 37.3032C78.4441 37.3331 79.3873 37.5497 79.9604 38.0776C80.4526 38.5412 80.7172 39.1269 80.7172 40.1181C80.717 42.1902 79.2939 43.1575 76.7424 43.1575ZM57.1196 35.6732C56.814 35.508 56.3628 35.4992 55.9126 35.4992H52.797V37.6623H55.8709C56.363 37.6623 56.7815 37.6465 57.1196 37.4638C57.4476 37.2835 57.6438 36.9513 57.6438 36.5394C57.6438 36.1274 57.4476 35.8292 57.1196 35.6732ZM85.3883 35.499C84.9282 35.499 84.622 35.5149 84.3645 35.673C84.0975 35.8292 83.995 36.0605 83.995 36.366C83.995 36.7291 84.2204 36.9765 84.5482 37.0835C84.8153 37.168 85.1016 37.1927 85.523 37.1927L86.8946 37.2259C88.2781 37.2571 89.2021 37.4737 89.7653 38.0015C89.8679 38.0747 89.9295 38.1571 90 38.2397V35.4992H85.3885L85.3883 35.499ZM44.697 35.499H41.3981V37.9521H44.6677C45.6398 37.9521 46.2443 37.5132 46.2447 36.68C46.2443 35.8377 45.6105 35.499 44.697 35.499ZM22.68 35.499V37.2502H28.2343V39.2155H22.68V41.1317H28.9004L31.7905 38.306L29.0232 35.499H22.68ZM38.9231 42.2346V34.5126L35.0387 38.3115L38.9231 42.2346ZM22.8923 26.7702V28.4298H44.0301L44.0203 24.9189H44.4294C44.7159 24.928 44.7992 24.952 44.7992 25.3822V28.43H55.7319V27.6125C56.6137 28.0424 57.985 28.43 59.7898 28.43H64.3891L65.3735 26.2911H67.5558L68.5184 28.43H77.3814V26.3983L78.7232 28.4298H85.8259V15H78.7971V16.5861L77.8128 15H70.6003V16.5861L69.6965 15H59.9539C58.3229 15 56.8898 15.2071 55.7318 15.7842V15H49.0084V15.7842C48.2714 15.1893 47.2673 15 46.1512 15H21.5887L19.9407 18.4689L18.2482 15H10.5119V16.5861L9.66183 15H3.06399L0.000115387 21.3856V26.4934L4.53068 16.8637H8.28987L12.5927 25.981V16.8637H16.7222L20.0333 23.3962L23.0751 16.8637H27.2876V26.4934H24.6942L24.6848 18.9516L21.0159 26.4934H18.7945L15.1163 18.9449V26.4934H9.97002L8.99789 24.3455H3.73L2.74783 26.4934H0V28.4306H4.32309L5.29777 26.2917H7.4802L8.45234 28.4306H16.9579V26.7952L17.717 28.4374H22.1324L22.8917 26.7706L22.8923 26.7702ZM56.2011 17.9862C57.0187 17.2176 58.2998 16.8632 60.0433 16.8632H62.4926V18.9265H60.0947C59.1718 18.9265 58.6499 19.0514 58.148 19.4971C57.7164 19.9025 57.4206 20.669 57.4206 21.6782C57.4206 22.7099 57.6461 23.4537 58.1161 23.9396C58.5057 24.3207 59.2138 24.4363 59.8796 24.4363H61.0163L64.5819 16.8635H68.3728L72.6564 25.9716V16.8636H76.5087L80.9561 23.5701V16.8636H83.5477V26.4929H79.9624L75.1666 19.2655V26.4929H70.0139L69.0294 24.345H63.7735L62.8184 26.4929H59.8575C58.6279 26.4929 57.0708 26.2455 56.189 25.4278C55.2997 24.6103 54.8375 23.5027 54.8375 21.7517C54.837 20.3234 55.1132 19.0179 56.2011 17.9862ZM50.9971 16.8633H53.5785V26.4929H50.9971V16.8633ZM39.358 16.8633H45.1772C46.4699 16.8633 47.4231 16.8945 48.2411 17.3245C49.0414 17.7547 49.5213 18.3827 49.5213 19.4566C49.5213 20.992 48.3947 21.7851 47.7388 22.0234C48.2922 22.2152 48.7653 22.5538 48.9906 22.8343C49.3478 23.3133 49.4093 23.7411 49.4093 24.6011V26.4928H46.8576L46.848 25.2785C46.848 24.6989 46.9089 23.8656 46.4486 23.4026C46.079 23.064 45.5154 22.9903 44.6044 22.9903H41.8884V26.4929H39.3583L39.358 16.8633ZM29.1586 16.8633H37.6105V18.8686H31.6889V20.6043H37.4684V22.5783H31.6889V24.5014H37.6105V26.4928H29.1586V16.8633Z" fill="#2557D6"/>
</g>
<defs>
<clipPath id="clip0_3659_9550">
<rect width="90" height="60" fill="white"/>
</clipPath>
</defs>
</svg>
