<svg width="90" height="60" viewBox="0 0 90 60" fill="none" xmlns="http://www.w3.org/2000/svg">
<g clip-path="url(#clip0_3659_9594)">
<path d="M0 7.5C0 3.35786 3.35786 0 7.5 0H82.5C86.6421 0 90 3.35786 90 7.5V52.5C90 56.6421 86.6421 60 82.5 60H7.5C3.35786 60 0 56.6421 0 52.5V7.5Z" fill="#E6E6E6"/>
<path d="M69.7695 47.1161C73.2262 47.1161 74.8532 45.7971 76.2743 41.7991L82.5 24.3372H78.8954L74.7205 37.8469H74.6473L70.4725 24.3555H66.7657L72.7718 40.9757L72.4501 41.9867C72.2229 43.4337 70.9238 44.466 69.4615 44.3592C69.1825 44.3592 68.6412 44.3303 68.4216 44.3013V47.0459C68.8684 47.1069 69.3197 47.1359 69.7695 47.1344V47.1161ZM57.7572 38.3714C55.8665 38.3714 54.6665 37.4565 54.6665 36.072C54.6665 34.6372 55.8238 33.8016 58.0363 33.6689L61.9763 33.4204V34.7104C61.8894 36.8359 60.0947 38.4903 57.9692 38.4034C57.8975 38.4004 57.8274 38.3943 57.7572 38.3882V38.3714ZM56.8058 41.0809C58.9512 41.1389 60.9578 40.0212 62.0358 38.1655H62.109V40.9102H65.3903V29.5429C65.3903 26.2463 62.754 24.1222 58.695 24.1222C54.9303 24.1222 52.146 26.2752 52.0439 29.2349H55.2383C55.6195 27.7299 57.0497 26.7373 58.5928 26.905C60.7611 26.905 61.9763 27.9159 61.9763 29.7762V31.0356L57.5545 31.2994C53.4375 31.548 51.2113 33.2329 51.2113 36.1635C51.2083 39.1353 53.5077 41.0977 56.8043 41.0977L56.8058 41.0809ZM37.7901 21.0559H41.8766C44.9536 21.0559 46.7117 22.6966 46.7117 25.583C46.7117 28.4694 44.9536 30.1238 41.8629 30.1238H37.7901V21.0559ZM34.245 18.0673V40.9056H37.7901V33.12H42.6984C46.6964 33.335 50.1104 30.2687 50.3254 26.2707C50.3376 26.0435 50.3392 25.8178 50.33 25.5906C50.5191 21.6368 47.468 18.2793 43.5142 18.0887C43.2809 18.078 43.0491 18.0795 42.8158 18.0902L34.245 18.0673ZM22.4782 22.3291C20.4411 22.2117 18.6983 23.4864 17.7315 23.4864C16.7648 23.4864 15.2705 22.3886 13.6588 22.4191C11.5241 22.4739 9.57849 23.6557 8.54621 25.5251C6.34899 29.305 7.97442 34.901 10.0984 37.9765C11.1384 39.5013 12.3856 41.1709 14.0248 41.1114C15.577 41.0535 16.193 40.1005 18.0685 40.1005C19.944 40.1005 20.5006 41.1114 22.1412 41.0809C23.8398 41.052 24.9102 39.5562 25.9532 38.0314C26.6881 36.9518 27.2599 35.7701 27.6518 34.5244C25.6498 33.6491 24.3522 31.6776 24.3415 29.4925C24.372 27.5652 25.3814 25.7873 27.0221 24.7764C25.9761 23.2912 24.2973 22.3794 22.4813 22.3154L22.4782 22.3291ZM21.2065 20.3118C20.3145 21.4356 18.9498 22.0806 17.515 22.0546C17.4235 20.6549 17.8993 19.278 18.834 18.232C19.7641 17.1524 21.0754 16.4754 22.4935 16.3428C22.5941 17.7822 22.1321 19.2033 21.2035 20.3072" fill="black"/>
</g>
<defs>
<clipPath id="clip0_3659_9594">
<rect width="90" height="60" fill="white"/>
</clipPath>
</defs>
</svg>
