<svg width="90" height="60" viewBox="0 0 90 60" fill="none" xmlns="http://www.w3.org/2000/svg">
<g clip-path="url(#clip0_3659_9583)">
<path d="M0 7.5C0 3.35786 3.35786 0 7.5 0H82.5C86.6421 0 90 3.35786 90 7.5V52.5C90 56.6421 86.6421 60 82.5 60H7.5C3.35786 60 0 56.6421 0 52.5V7.5Z" fill="#E4E5E7"/>
<path d="M42.9697 32.0163V40.6859H40.2002V19.2759H47.5454C48.4222 19.2577 49.2939 19.4121 50.1103 19.7302C50.9266 20.0483 51.6714 20.5239 52.3018 21.1293C52.9385 21.6981 53.4452 22.3956 53.7879 23.1749C54.1306 23.9543 54.3013 24.7974 54.2886 25.6478C54.3068 26.5027 54.1387 27.3513 53.7958 28.1357C53.4528 28.92 52.9432 29.6214 52.3018 30.1918C51.0174 31.4081 49.4319 32.0157 47.5454 32.0146H42.9697V32.0163ZM42.9697 21.9117V29.3855H47.6142C48.1234 29.4005 48.6301 29.3098 49.102 29.1192C49.5739 28.9286 50.0005 28.6423 50.3545 28.2785C50.7067 27.9385 50.9867 27.5317 51.1779 27.0824C51.369 26.633 51.4675 26.1501 51.4675 25.6623C51.4675 25.1745 51.369 24.6916 51.1779 24.2422C50.9867 23.7928 50.7067 23.3861 50.3545 23.0461C50.0049 22.6747 49.5798 22.3813 49.1073 22.1855C48.6349 21.9896 48.126 21.8958 47.6142 21.91H42.9697V21.9117Z" fill="#5F6368"/>
<path d="M60.6704 25.5586C62.7175 25.5586 64.3333 26.1018 65.5179 27.1883C66.7026 28.2748 67.2943 29.7644 67.2932 31.6572V40.6855H64.6441V38.6526H64.5237C63.3769 40.3268 61.8516 41.1638 59.9479 41.1638C58.3229 41.1638 56.9634 40.6855 55.8694 39.7289C55.3443 39.2898 54.9246 38.7399 54.6407 38.1193C54.3568 37.4987 54.2159 36.823 54.2283 36.1415C54.2283 34.6256 54.8051 33.4201 55.9588 32.525C57.1125 31.6299 58.6526 31.1811 60.5793 31.1789C62.2238 31.1789 63.5781 31.4778 64.6424 32.0757V31.4471C64.6455 30.9824 64.5445 30.523 64.3466 30.1019C64.1488 29.6809 63.859 29.3088 63.4984 29.0128C62.7661 28.3566 61.8116 27.9985 60.8252 28.01C59.2782 28.01 58.054 28.658 57.1526 29.954L54.7134 28.4285C56.0551 26.5152 58.0408 25.5586 60.6704 25.5586ZM57.0873 36.2012C57.0854 36.5513 57.1678 36.8967 57.3276 37.2087C57.4874 37.5207 57.7199 37.7903 58.0058 37.995C58.6184 38.4734 59.3786 38.7269 60.1578 38.7124C61.3265 38.7105 62.4468 38.2485 63.2731 37.4278C64.1905 36.5702 64.6492 35.5641 64.6492 34.4092C63.7857 33.7259 62.5816 33.3843 61.0368 33.3843C59.9118 33.3843 58.9737 33.6536 58.2226 34.1923C57.464 34.7389 57.0873 35.4035 57.0873 36.2012Z" fill="#5F6368"/>
<path d="M82.5 26.0371L73.2522 47.143H70.3932L73.825 39.7581L67.7441 26.0371H70.7545L75.1496 36.5602H75.2098L79.4845 26.0371H82.5Z" fill="#5F6368"/>
<path d="M31.7782 30.1474C31.7792 29.3093 31.7079 28.4725 31.5649 27.6465H19.8848V32.3836H26.5746C26.4377 33.1402 26.148 33.8614 25.7228 34.5038C25.2977 35.1461 24.746 35.6964 24.101 36.1213V39.1962H28.0935C30.4313 37.0557 31.7782 33.8903 31.7782 30.1474Z" fill="#4285F4"/>
<path d="M19.8854 42.1664C23.2277 42.1664 26.0419 41.0765 28.0941 39.1974L24.1016 36.1224C22.9903 36.8707 21.5591 37.2977 19.8854 37.2977C16.6548 37.2977 13.9128 35.135 12.9323 32.2207H8.81934V35.3896C9.85019 37.4267 11.4309 39.1392 13.385 40.3358C15.3391 41.5325 17.5896 42.1663 19.8854 42.1664Z" fill="#34A853"/>
<path d="M12.9318 32.2207C12.4135 30.6935 12.4135 29.0398 12.9318 27.5126V24.3438H8.81883C7.95163 26.0574 7.5 27.9488 7.5 29.8667C7.5 31.7846 7.95163 33.6759 8.81883 35.3896L12.9318 32.2207Z" fill="#FBBC04"/>
<path d="M19.8854 22.4358C21.6516 22.4072 23.3583 23.0699 24.6365 24.2808L28.1715 20.7703C25.93 18.6794 22.9604 17.5315 19.8854 17.5672C17.5896 17.5673 15.3391 18.2011 13.385 19.3978C11.4309 20.5944 9.85019 22.3069 8.81934 24.344L12.9323 27.5129C13.9128 24.5985 16.6548 22.4358 19.8854 22.4358Z" fill="#EA4335"/>
</g>
<defs>
<clipPath id="clip0_3659_9583">
<rect width="90" height="60" fill="white"/>
</clipPath>
</defs>
</svg>
