<svg width="90" height="60" viewBox="0 0 90 60" fill="none" xmlns="http://www.w3.org/2000/svg">
<g clip-path="url(#clip0_3659_9543)">
<path d="M0 7.5C0 3.35786 3.35786 0 7.5 0H82.5C86.6421 0 90 3.35786 90 7.5V52.5C90 56.6421 86.6421 60 82.5 60H7.5C3.35786 60 0 56.6421 0 52.5V7.5Z" fill="#FDEACE"/>
<path d="M54.3904 12.2391L35.0234 12.3057L35.6103 47.7616L54.9772 47.695L54.3904 12.2391Z" fill="#FF5F00"/>
<path d="M36.2985 30.1048C36.1787 22.8934 39.4092 16.4857 44.4691 12.3294C40.6498 9.33231 35.8616 7.53006 30.671 7.54784C18.3743 7.58995 8.59356 17.7201 8.80093 30.199C9.00831 42.678 19.1247 52.7399 31.4213 52.6978C36.6119 52.68 41.3397 50.8452 45.059 47.8223C39.8625 43.7638 36.4184 37.3163 36.2985 30.1048Z" fill="#EB001B"/>
<path d="M81.2016 29.8014C81.409 42.2804 71.6282 52.4105 59.3315 52.4526C54.1409 52.4704 49.3527 50.6681 45.5333 47.671C50.6551 43.5145 53.8238 37.107 53.704 29.8956C53.5842 22.6841 50.1411 16.2993 44.9435 12.1782C48.6628 9.15525 53.3906 7.3204 58.5812 7.30263C70.8779 7.26051 80.9953 17.3852 81.2016 29.8014Z" fill="#F79E1B"/>
</g>
<defs>
<clipPath id="clip0_3659_9543">
<rect width="90" height="60" fill="white"/>
</clipPath>
</defs>
</svg>
