<svg width="90" height="60" viewBox="0 0 90 60" fill="none" xmlns="http://www.w3.org/2000/svg">
<g clip-path="url(#clip0_3659_9553)">
<path d="M0 7.5C0 3.35786 3.35786 0 7.5 0H82.5C86.6421 0 90 3.35786 90 7.5V52.5C90 56.6421 86.6421 60 82.5 60H7.5C3.35786 60 0 56.6421 0 52.5V7.5Z" fill="#DCEFDC"/>
<path d="M74.7888 19.1357H60.3496C61.1907 23.9021 65.8169 28.3881 70.8636 28.3881H82.359C82.4992 27.9675 82.4991 27.2666 82.4991 26.846C82.4991 22.6404 78.9945 19.1357 74.7888 19.1357Z" fill="url(#paint0_linear_3659_9553)"/>
<path d="M61.6113 29.2295V40.865H68.6207V34.6968H74.7889C78.1534 34.6968 81.0973 32.3136 82.0786 29.2295H61.6113Z" fill="#4FAD50"/>
<path d="M36.9395 19.1357V40.7245H43.1077C43.1077 40.7245 44.6497 40.7245 45.4909 39.1825C49.6965 30.9114 50.9581 28.3881 50.9581 28.3881H51.7993V40.7245H58.8086V19.1357H52.6404C52.6404 19.1357 51.0983 19.2759 50.2572 20.6778C46.7525 27.8273 44.7899 31.4722 44.7899 31.4722H43.9488V19.1357H36.9395Z" fill="#4FAD50"/>
<path d="M7.5 40.8651V19.2764H14.5093C14.5093 19.2764 16.472 19.2764 17.5935 22.3605C20.3972 30.4913 20.6776 31.6128 20.6776 31.6128C20.6776 31.6128 21.2383 29.6502 23.7617 22.3605C24.8832 19.2764 26.8458 19.2764 26.8458 19.2764H33.8552V40.8651H26.8458V29.2296H26.0047L22.0795 40.8651H18.9953L15.0701 29.2296H14.229V40.8651H7.5Z" fill="#4FAD50"/>
</g>
<defs>
<linearGradient id="paint0_linear_3659_9553" x1="60.3247" y1="23.8282" x2="82.4495" y2="23.8282" gradientUnits="userSpaceOnUse">
<stop stop-color="#27B1E6"/>
<stop offset="1" stop-color="#148ACA"/>
</linearGradient>
<clipPath id="clip0_3659_9553">
<rect width="90" height="60" fill="white"/>
</clipPath>
</defs>
</svg>
