<svg width="90" height="60" viewBox="0 0 90 60" fill="none" xmlns="http://www.w3.org/2000/svg">
<g clip-path="url(#clip0_3659_9567)">
<path d="M0 7.5C0 3.35786 3.35786 0 7.5 0H82.5C86.6421 0 90 3.35786 90 7.5V52.5C90 56.6421 86.6421 60 82.5 60H7.5C3.35786 60 0 56.6421 0 52.5V7.5Z" fill="#FCE6CF"/>
<path d="M57.5818 35.7948C58.3293 36.1151 58.6496 37.1829 58.6496 37.7167C58.7564 38.5709 58.5428 38.998 58.2225 38.998C57.9022 38.998 57.4751 38.6777 57.048 37.9303C56.6209 37.1829 56.4073 36.4355 56.6209 36.0084C56.9412 35.7948 57.2615 35.688 57.5818 35.7948Z" fill="#F28A1A"/>
<path d="M53.2038 39.1045C53.6309 39.1045 54.1648 39.318 54.6987 39.7451C55.5529 40.4925 55.8732 41.3467 55.4461 41.9874C55.2325 42.3077 54.6987 42.5212 54.2716 42.5212C53.7377 42.5212 53.2038 42.3077 52.8835 41.9874C52.0293 41.24 51.8158 40.1722 52.3497 39.5316C52.4564 39.318 52.7767 39.1045 53.2038 39.1045Z" fill="#F28A1A"/>
<path d="M43.0607 47.54C31.9563 47.54 22.9873 38.571 22.9873 27.5734C22.9873 16.5757 31.9563 7.5 43.0607 7.5C54.1651 7.5 63.1341 16.469 63.1341 27.5734C63.1341 31.3105 62.0663 34.834 60.358 37.8236C60.2512 37.9304 60.1444 37.9304 60.1444 37.7169C59.397 32.8053 56.4074 30.1359 52.1364 29.2818C51.7093 29.175 51.7093 28.9614 52.2432 28.9614C53.6313 28.8547 55.4464 28.8547 56.5141 29.0682C56.6209 28.5343 56.6209 28.0005 56.6209 27.5734C56.6209 20.3128 50.6416 14.3335 43.381 14.3335C36.1204 14.3335 30.1411 20.3128 30.1411 27.5734C30.1411 34.834 36.1204 40.8133 43.381 40.8133H44.0217C43.8081 39.6388 43.7013 38.4643 43.8081 37.183C43.8081 36.3288 44.0217 36.222 44.342 36.8627C46.1571 40.0659 48.8265 42.842 53.9516 44.0165C58.1157 44.9774 62.2799 46.0452 66.8711 51.7042C67.2982 52.238 66.6576 52.7719 66.2305 52.3448C61.6393 48.2874 57.4751 46.8994 53.6313 46.8994C48.8265 47.0061 45.9436 47.54 43.0607 47.54Z" fill="#F28A1A"/>
</g>
<defs>
<clipPath id="clip0_3659_9567">
<rect width="90" height="60" fill="white"/>
</clipPath>
</defs>
</svg>
