<svg width="90" height="60" viewBox="0 0 90 60" fill="none" xmlns="http://www.w3.org/2000/svg">
<g clip-path="url(#clip0_3659_9577)">
<path d="M0 7.5C0 3.35786 3.35786 0 7.5 0H82.5C86.6421 0 90 3.35786 90 7.5V52.5C90 56.6421 86.6421 60 82.5 60H7.5C3.35786 60 0 56.6421 0 52.5V7.5Z" fill="#D7E4F4"/>
<path d="M8.96294 12.4978C8.37776 12.7904 7.89013 13.278 7.69507 13.7657C7.59754 14.0583 7.5 16.6916 7.5 21.4705V28.6876H10.9135V24.1038H15.3999L16.5702 26.3469L17.7406 28.5901H19.6912C20.764 28.5901 21.6417 28.5901 21.6417 28.4926C21.6417 28.3951 21.0566 27.2247 20.2763 25.8593L18.9109 23.3235L19.301 23.1285C21.2516 21.8606 22.1294 19.2273 21.6417 16.3014C21.3492 14.5459 20.4714 13.278 19.106 12.6928C18.3257 12.4003 18.2282 12.3027 13.8394 12.3027C10.4259 12.3027 9.35306 12.3027 8.96294 12.4978ZM17.448 15.8138C17.6431 15.9113 17.9356 16.2039 18.0332 16.4965C18.3258 17.1792 18.3257 18.8372 18.1307 19.3248C17.5455 20.4952 16.7653 20.7878 13.4493 20.7878H11.0111V15.6187H14.0345C15.6925 15.6187 17.2529 15.7163 17.448 15.8138ZM26.6157 12.4003C25.1528 12.8879 24.08 13.8632 23.6899 15.3261C23.2997 16.4965 22.9096 19.1298 22.9096 20.4952C22.9096 21.7631 23.2997 24.2988 23.5923 25.3717C24.1775 27.1272 25.0553 28.1025 26.7133 28.4926C27.4935 28.6876 28.1762 28.6876 30.712 28.6876C33.5403 28.6876 33.8329 28.5901 34.6131 28.2975C36.6613 27.4198 37.539 24.9815 37.539 20.4952C37.539 15.7163 36.5637 13.3756 34.4181 12.5953C33.6378 12.3027 33.3453 12.3027 30.2243 12.3027C28.5663 12.3027 26.9083 12.4003 26.6157 12.4003ZM33.4428 16.0088C34.4181 17.3743 34.4181 24.0062 33.4428 24.9815C33.1502 25.2741 27.4935 25.2741 27.2985 24.9815C26.6157 24.1038 26.3231 19.3248 26.9083 17.0817C27.1034 16.2039 27.2009 15.9113 27.4935 15.8138C27.6886 15.7163 29.054 15.7163 30.6144 15.7163C32.9551 15.7163 33.3453 15.7163 33.4428 16.0088ZM40.855 12.5953C40.5624 12.7904 40.1723 13.1805 39.9773 13.4731C39.6847 13.9607 39.6846 14.2533 39.5871 20.1051C39.5871 24.2013 39.5871 26.4445 39.6846 26.8346C39.9772 27.7124 40.5624 28.3951 41.4402 28.5901C42.318 28.7852 48.8524 28.7852 50.0228 28.5901C52.2659 28.2 53.4363 26.9321 53.6313 24.4939C53.7289 23.1285 53.5338 22.1532 52.9486 21.1779L52.5585 20.4952L53.1437 19.4224C53.6313 18.4471 53.7289 18.3495 53.7289 16.8866C53.7289 15.7163 53.6313 15.2286 53.4363 14.6434C53.0462 13.7657 52.461 13.1805 51.5832 12.6928L50.803 12.3027H46.2191C41.4402 12.3027 41.4402 12.3027 40.855 12.5953ZM49.9252 15.8138C50.1203 16.0088 50.2178 16.9841 50.1203 17.4718C50.0228 17.7644 49.8277 18.057 49.6326 18.3495C49.2425 18.7397 49.2425 18.7397 46.2191 18.7397H43.1957V15.6187H46.5117C48.2672 15.7163 49.8277 15.8138 49.9252 15.8138ZM49.2425 22.3482C49.8277 22.5433 50.1203 23.226 50.1203 24.0062C50.1203 24.4939 50.0227 24.7865 49.8277 24.884C49.6326 25.0791 48.7549 25.0791 46.3167 25.0791H43.0006V21.9581L45.9265 22.0557C47.5845 22.1532 49.0475 22.2507 49.2425 22.3482ZM58.5078 12.5953C57.0449 13.1805 56.3621 14.1558 55.777 16.3014C55.4844 17.3743 55.4844 17.9594 55.4844 20.4952C55.4844 23.1285 55.4844 23.4211 55.8745 24.7865C56.3622 26.4445 56.7523 27.1272 57.63 27.8099C58.7028 28.5901 58.9954 28.5901 62.7016 28.5901C66.4077 28.5901 66.7978 28.4926 67.7731 27.8099C68.6508 27.2247 69.041 26.4445 69.5286 24.7865C69.9187 23.4211 69.9187 23.1285 69.9187 20.4952C69.9187 18.057 69.9187 17.4718 69.6261 16.3014C69.041 14.0583 68.3582 13.083 66.8953 12.5953C66.1151 12.3027 65.8225 12.3027 62.7016 12.3027C59.5806 12.3027 59.1905 12.3027 58.5078 12.5953ZM65.5299 15.8138C65.92 16.0088 66.1151 16.399 66.4076 18.057C66.7978 20.1051 66.4077 23.9087 65.8225 24.7865C65.6274 25.1766 65.6274 25.1766 62.7016 25.1766C59.288 25.1766 59.4831 25.2741 59.093 23.3235C58.5078 20.5927 58.9954 16.1064 59.7757 15.8138C60.2633 15.6187 65.1398 15.6187 65.5299 15.8138Z" fill="#2F69B1"/>
<path d="M7.98765 31.7989L7.5 32.2866V46.8184L7.89014 47.2085C8.28026 47.5986 8.4753 47.5986 9.15801 47.5986C9.84071 47.5986 10.0358 47.5011 10.3284 47.3061C10.816 46.7209 10.9135 46.1357 10.9135 43.6V41.1617H13.0592L14.132 42.137C16.2776 43.9901 17.0579 44.9654 17.0579 46.0382C17.0579 46.6234 17.1554 46.8184 17.5455 47.2085C18.0332 47.6962 18.1307 47.6962 18.8134 47.6962C19.3986 47.6962 19.5936 47.5986 19.9838 47.3061C20.4714 46.9159 20.4714 46.8184 20.4714 45.7456C20.4714 44.8678 20.3739 44.4777 19.9838 43.6975C19.4961 42.6247 17.9356 40.8691 17.0579 40.0889L16.4727 39.6013L17.448 38.7235C18.6183 37.6507 19.6912 36.2853 20.1788 35.2124C20.4714 34.6273 20.5689 34.1396 20.5689 33.3594C20.5689 32.2866 20.5689 32.2866 20.0813 31.7989C19.6912 31.4088 19.4961 31.4088 18.7159 31.4088C17.8381 31.4088 17.7406 31.4088 17.448 31.7989C17.2529 32.0915 17.1554 32.3841 17.1554 32.8717C17.1554 33.2619 17.0579 33.7495 16.9603 33.9446C16.6678 34.5297 15.5949 35.7976 14.2295 36.968L13.1567 37.8457H11.0111V35.4075C11.0111 34.1396 10.9135 32.7742 10.816 32.4816C10.621 31.7014 10.0358 31.3113 9.15801 31.3113C8.4753 31.4088 8.37776 31.4088 7.98765 31.7989ZM26.6157 31.6039C24.6651 32.189 23.5923 33.652 22.8121 36.4803C22.422 37.7482 22.422 38.2358 22.3245 41.942C22.2269 46.3308 22.3245 46.8184 23.0072 47.3061C23.4948 47.6962 24.7627 47.6962 25.1528 47.3061C25.6404 46.9159 25.8355 46.4283 25.8355 44.9654V43.5024H33.4428V45.1604C33.4428 46.7209 33.4428 46.8184 33.8329 47.2085C34.223 47.5986 34.4181 47.5986 35.1008 47.5986C35.881 47.5986 35.9785 47.5986 36.3687 47.111L36.7588 46.6234V41.942C36.6612 37.5531 36.6612 37.163 36.3687 36.1877C35.686 33.847 34.6131 32.3841 33.2477 31.7989C32.4675 31.4088 32.2724 31.4088 29.8342 31.4088C27.9812 31.4088 27.0059 31.4088 26.6157 31.6039ZM31.6873 34.9199C32.4675 35.2124 33.1502 36.968 33.3452 39.2111L33.4428 40.1864H25.8355L25.933 39.0161C26.1281 36.968 26.9083 35.0174 27.6886 34.8223C28.3713 34.7248 31.1996 34.8223 31.6873 34.9199ZM41.4402 31.6039C39.9772 32.0915 39.197 32.7742 38.7094 34.0421C38.4168 34.7248 38.4168 35.1149 38.4168 36.2853C38.4168 38.626 39.0995 39.9914 40.7575 40.7716C41.4402 41.0642 41.6352 41.1617 44.5611 41.1617C47.5845 41.2593 47.682 41.2593 47.9746 41.5518C48.3647 41.942 48.4623 43.2098 48.0722 43.795L47.7796 44.1851H43.8784C40.1723 44.1851 39.8797 44.1851 39.5871 44.4777C38.8069 45.1604 38.7094 46.5258 39.4896 47.2085L39.9772 47.5986H44.2685C46.6092 47.5986 48.7549 47.5011 49.0475 47.4036C49.8277 47.2085 50.7055 46.3308 51.2906 45.2579C51.7783 44.3802 51.7783 44.1851 51.7783 42.6247C51.7783 41.1617 51.7783 40.9667 51.3882 40.1864C50.9005 39.1136 50.2178 38.4309 49.5351 38.0408C49.0475 37.8457 48.5598 37.7482 45.6339 37.6507C41.7328 37.5531 41.8303 37.6507 41.8303 36.0902C41.8303 34.5297 41.6352 34.6273 46.3167 34.5297L50.3154 34.4322L50.7055 34.0421C51.0956 33.652 51.0956 33.5544 51.1931 32.3841L51.2906 31.1162H46.7068C43.3908 31.4088 41.8303 31.5063 41.4402 31.6039ZM55.972 31.6039C55.6795 31.7014 55.1918 31.8964 54.8992 31.994C53.0462 32.9693 52.1684 36.3828 53.3387 38.7235C53.8264 39.6988 54.3141 40.284 55.1918 40.7716C55.8745 41.1617 55.972 41.1617 58.8979 41.2593C60.5559 41.2593 62.0188 41.3568 62.2139 41.4543C62.7015 41.6494 62.9941 42.4296 62.7991 43.3074C62.604 44.3802 62.7991 44.3802 58.3127 44.3802H54.314L53.9239 44.7703C53.5338 45.1604 53.5338 45.3555 53.5338 46.0382C53.5338 46.7209 53.6313 46.9159 53.9239 47.3061L54.314 47.6962H58.7028C63.6768 47.6962 63.7744 47.6962 64.7497 46.7209C65.6274 45.8431 66.0175 44.8678 66.1151 43.1123C66.2126 41.1617 65.8225 39.9914 64.7497 38.9185C64.262 38.4309 63.7744 38.1383 63.3843 38.0408C63.0917 37.9433 61.6287 37.8457 60.0683 37.8457C58.5078 37.8457 57.1424 37.8457 56.8498 37.7482C56.3621 37.6507 56.0696 37.163 56.0696 36.2853C56.0696 35.4075 56.2646 34.9199 56.8498 34.8223C57.1424 34.8223 58.8979 34.7248 60.8485 34.7248C65.4324 34.7248 65.5299 34.6273 65.5299 32.4816V31.4088H60.946C57.9226 31.4088 56.3622 31.5063 55.972 31.6039ZM72.0644 31.7014C71.6742 31.8964 71.0891 32.189 70.7965 32.3841C69.6261 33.2619 68.5533 35.6026 68.2607 38.0408C68.0657 39.6988 68.0657 46.2332 68.2607 46.8184C68.4558 47.4036 69.0409 47.6962 69.9187 47.6962C70.4064 47.6962 70.699 47.5986 71.0891 47.3061L71.5767 46.9159V45.2579L71.6742 43.6H79.0865L79.184 45.2579V46.9159L79.6716 47.3061C80.0617 47.6962 80.2568 47.6962 80.842 47.6962C81.4272 47.6962 81.6222 47.5986 82.0124 47.3061L82.5 46.9159V42.3321C82.5 38.1383 82.5 37.6507 82.2074 36.5778C81.5247 34.1396 80.5494 32.6767 79.184 31.994C78.3062 31.6039 78.3062 31.6039 75.5754 31.5063C73.1372 31.4088 72.7471 31.4088 72.0644 31.7014ZM77.9161 35.31C78.5013 35.9927 78.9889 37.4556 78.9889 38.9185L79.0865 40.0889H71.5767V39.2111C71.5767 37.3581 72.357 35.2124 73.2347 34.8223C73.4298 34.7248 74.4051 34.7248 75.5754 34.7248H77.526L77.9161 35.31Z" fill="#D31223"/>
</g>
<defs>
<clipPath id="clip0_3659_9577">
<rect width="90" height="60" fill="white"/>
</clipPath>
</defs>
</svg>
