<svg width="90" height="60" viewBox="0 0 90 60" fill="none" xmlns="http://www.w3.org/2000/svg">
<g clip-path="url(#clip0_3659_9560)">
<path d="M0 7.5C0 3.35786 3.35786 0 7.5 0H82.5C86.6421 0 90 3.35786 90 7.5V52.5C90 56.6421 86.6421 60 82.5 60H7.5C3.35786 60 0 56.6421 0 52.5V7.5Z" fill="#FAD1D7"/>
<path d="M23.1198 7.50293H41.0746C43.581 7.50293 45.1398 9.54581 44.5551 12.0605L36.1959 47.95C35.6059 50.4559 33.0966 52.5005 30.5885 52.5005H12.6354C10.1326 52.5005 8.5702 50.4559 9.15488 47.95L17.5176 12.0605C18.1023 9.54581 20.6104 7.50293 23.1198 7.50293Z" fill="#E21836"/>
<path d="M39.5796 7.5H60.2272C62.7331 7.5 61.6031 9.54288 61.0136 12.0575L52.6557 47.9471C52.0693 50.453 52.2522 52.4976 49.741 52.4976H29.0934C26.5823 52.4976 25.0283 50.453 25.6182 47.9471L33.9757 12.0575C34.5691 9.54288 37.072 7.5 39.5796 7.5Z" fill="#00447C"/>
<path d="M59.4079 7.5H77.3627C79.8725 7.5 81.4314 9.54288 80.8419 12.0575L72.484 47.9471C71.894 50.453 69.3829 52.4976 66.8735 52.4976H48.927C46.4158 52.4976 44.8583 50.453 45.4464 47.9471L53.8057 12.0575C54.3904 9.54288 56.8967 7.5 59.4079 7.5Z" fill="#007B84"/>
<path d="M27.8078 19.0018C25.9614 19.0207 25.4161 19.0018 25.2419 18.9607C25.1749 19.2789 23.929 25.0263 23.9255 25.0311C23.6572 26.1939 23.462 27.0228 22.799 27.558C22.4227 27.8692 21.9833 28.0193 21.4739 28.0193C20.6551 28.0193 20.178 27.6127 20.0979 26.8416L20.0826 26.5769C20.0826 26.5769 20.3321 25.0193 20.3321 25.0106C20.3321 25.0106 21.6397 19.773 21.8739 19.0806C21.8861 19.0412 21.8896 19.0207 21.8927 19.0018C19.3474 19.0242 18.8962 19.0018 18.8651 18.9607C18.8481 19.0172 18.785 19.3419 18.785 19.3419L17.4498 25.2451L17.3352 25.7458L17.1133 27.3834C17.1133 27.8692 17.2087 28.2657 17.3986 28.6009C18.0069 29.6639 19.7422 29.8232 20.7238 29.8232C21.9885 29.8232 23.175 29.5545 23.9767 29.0639C25.3684 28.2416 25.7325 26.9563 26.0572 25.8141L26.2078 25.2281C26.2078 25.2281 27.5548 19.7883 27.7837 19.0806C27.7924 19.0412 27.7959 19.0207 27.8078 19.0018ZM32.391 23.3902C32.0662 23.3902 31.4728 23.469 30.9398 23.7302C30.7463 23.8296 30.5634 23.9442 30.3704 24.0584L30.5446 23.4296L30.4492 23.3237C29.3188 23.5525 29.0658 23.5832 28.0216 23.7302L27.9341 23.7884C27.8129 24.7937 27.7052 25.5495 27.2558 27.5254C27.0847 28.2536 26.907 28.9888 26.7289 29.7153L26.777 29.8077C27.847 29.7512 28.1717 29.7512 29.1017 29.7665L29.177 29.6847C29.2951 29.0794 29.3105 28.9376 29.5722 27.7118C29.6951 27.1306 29.9516 25.8536 30.0781 25.3989C30.3105 25.2913 30.5398 25.1854 30.7586 25.1854C31.2798 25.1854 31.2164 25.6401 31.1962 25.8212C31.1739 26.1254 30.984 27.1188 30.7892 27.9718L30.6593 28.5223C30.5687 28.9289 30.4693 29.3241 30.3787 29.7271L30.4181 29.8077C31.4728 29.7512 31.7945 29.7512 32.6951 29.7665L32.801 29.6847C32.9638 28.7394 33.0115 28.4864 33.3004 27.1101L33.4457 26.4777C33.7279 25.2401 33.8697 24.6125 33.6562 24.1013C33.4304 23.5285 32.8886 23.3902 32.391 23.3902ZM37.5109 24.686C36.9503 24.7936 36.5928 24.8654 36.2374 24.9118C35.8851 24.9682 35.5416 25.0195 34.9998 25.0947L34.9569 25.1337L34.9175 25.1647C34.8611 25.5682 34.8217 25.917 34.7468 26.3271C34.6834 26.7512 34.5858 27.233 34.4269 27.9253C34.304 28.4553 34.2405 28.64 34.1705 28.8264C34.1022 29.0129 34.0269 29.194 33.8886 29.7153L33.921 29.7634L33.9482 29.8076C34.4545 29.7835 34.7858 29.7665 35.1263 29.7634C35.4663 29.7512 35.8186 29.7634 36.3639 29.7665L36.4116 29.7275L36.4628 29.6846C36.5416 29.2146 36.5534 29.0881 36.6015 28.8588C36.6492 28.6129 36.7315 28.2724 36.9333 27.363C37.0287 26.9359 37.135 26.51 37.2339 26.0742C37.3368 25.64 37.4444 25.2124 37.5468 24.7853L37.5315 24.7337L37.5109 24.686ZM37.5229 22.9388C37.0135 22.6382 36.1194 22.7336 35.5177 23.1489C34.9177 23.5559 34.8494 24.1336 35.357 24.4382C35.8577 24.7305 36.7553 24.6434 37.3518 24.2246C37.9505 23.8089 38.0253 23.2364 37.5229 22.9388ZM40.6036 29.9018C41.6343 29.9018 42.6907 29.6178 43.4859 28.7749C44.0977 28.0913 44.3782 27.0743 44.4754 26.6555C44.7918 25.2673 44.5454 24.6191 44.236 24.2244C43.766 23.6227 42.9353 23.4297 42.0736 23.4297C41.5555 23.4297 40.3213 23.4809 39.3572 24.3697C38.6649 25.0108 38.345 25.8808 38.152 26.715C37.9572 27.5649 37.7332 29.0948 39.1402 29.6642C39.5743 29.8506 40.2001 29.9018 40.6036 29.9018ZM40.5231 26.7784C40.7607 25.7272 41.0413 24.845 41.7572 24.845C42.3183 24.845 42.359 25.5014 42.1095 26.5561C42.0649 26.7903 41.8601 27.6607 41.583 28.0314C41.3896 28.3049 41.1607 28.4708 40.9078 28.4708C40.8325 28.4708 40.3848 28.4708 40.3778 27.806C40.3743 27.4778 40.4413 27.1425 40.5231 26.7784ZM47.0517 29.7666L47.1323 29.6848C47.2465 29.0796 47.2653 28.9373 47.5182 27.712C47.6447 27.1308 47.9064 25.8538 48.0294 25.3991C48.2622 25.291 48.4876 25.1851 48.7134 25.1851C49.2311 25.1851 49.1681 25.6398 49.1476 25.8209C49.1287 26.1255 48.9388 27.1185 48.7406 27.9715L48.6176 28.522C48.5235 28.929 48.4211 29.3238 48.3305 29.7273L48.3699 29.8078C49.4281 29.7513 49.7375 29.7513 50.6434 29.7666L50.7528 29.6848C50.9117 28.7391 50.9546 28.4861 51.2521 27.1102L51.3939 26.4774C51.6775 25.2398 51.8211 24.6126 51.611 24.1015C51.3786 23.5286 50.8333 23.3903 50.3427 23.3903C50.0176 23.3903 49.4211 23.4686 48.8911 23.7304C48.7016 23.8297 48.5117 23.9439 48.3252 24.0586L48.4876 23.4297L48.4005 23.3234C47.2705 23.5527 47.0123 23.5833 45.9695 23.7304L45.8894 23.7886C45.7629 24.7938 45.6601 25.5492 45.2106 27.5255C45.0395 28.2537 44.8618 28.989 44.6841 29.7154L44.7318 29.8078C45.8036 29.7513 46.1235 29.7513 47.0517 29.7666ZM54.8265 29.8076C54.893 29.4828 55.2882 27.5581 55.2917 27.5581C55.2917 27.5581 55.6283 26.1459 55.6488 26.0947C55.6488 26.0947 55.7547 25.9476 55.8607 25.8894H56.0165C57.4865 25.8894 59.1464 25.8894 60.4475 24.9323C61.3328 24.2759 61.9381 23.3065 62.2081 22.1284C62.2781 21.8396 62.3298 21.496 62.3298 21.1525C62.3298 20.7013 62.2392 20.2549 61.9775 19.9061C61.314 18.9779 59.9928 18.9608 58.4676 18.9538C58.4628 18.9538 57.7158 18.9608 57.7158 18.9608C55.7635 18.9849 54.9806 18.9779 54.6589 18.9385C54.6318 19.0807 54.5806 19.3337 54.5806 19.3337C54.5806 19.3337 53.8812 22.5748 53.8812 22.58C53.8812 22.58 52.2077 29.471 52.1289 29.7958C53.8335 29.7752 54.5324 29.7752 54.8265 29.8076ZM56.1224 24.05C56.1224 24.05 56.8659 20.8155 56.8624 20.8277L56.8865 20.6619L56.897 20.5354L57.1941 20.566C57.1941 20.566 58.7276 20.6978 58.7635 20.7013C59.3687 20.9354 59.6182 21.5389 59.444 22.3266C59.2851 23.0466 58.8182 23.6518 58.2182 23.9441C57.7241 24.1918 57.1189 24.2124 56.4952 24.2124H56.0917L56.1224 24.05ZM60.7518 26.8383C60.5553 27.676 60.3295 29.206 61.7295 29.7512C62.1759 29.9412 62.5759 29.9976 62.9825 29.9771C63.4118 29.9539 63.8096 29.7386 64.1781 29.4287C64.1448 29.5561 64.1116 29.6834 64.0783 29.8112L64.1418 29.893C65.1488 29.8506 65.4612 29.8506 66.5522 29.8589L66.6511 29.7836C66.8104 28.8471 66.9606 27.9377 67.3746 26.146C67.5763 25.2878 67.7776 24.4379 67.9846 23.5832L67.9522 23.4891C66.8258 23.6979 66.5247 23.7425 65.4411 23.8961L65.3588 23.9631C65.3479 24.0502 65.3365 24.1338 65.326 24.2174C65.1575 23.9451 64.9133 23.7128 64.5365 23.5679C64.0547 23.3784 62.9229 23.6226 61.9501 24.5084C61.2665 25.1408 60.9383 26.0073 60.7518 26.8383ZM63.1177 26.8896C63.3588 25.8572 63.6358 24.9837 64.3536 24.9837C64.8074 24.9837 65.0463 25.4025 64.9978 26.1167C64.9593 26.2948 64.9177 26.4826 64.8682 26.6948C64.7965 27.0016 64.7186 27.3057 64.6428 27.6103C64.5658 27.8186 64.4761 28.0151 64.3776 28.146C64.193 28.4077 63.7536 28.5701 63.5006 28.5701C63.4288 28.5701 62.986 28.5701 62.9706 27.9171C62.9671 27.592 63.0341 27.2572 63.1177 26.8896ZM75.4723 23.4808L75.3852 23.3814C74.2706 23.6072 74.0688 23.6431 73.0448 23.7814L72.9695 23.8567C72.966 23.869 72.9629 23.8878 72.9577 23.9048L72.9542 23.8878C72.1918 25.6466 72.2141 25.2672 71.5936 26.6519C71.5901 26.5889 71.5901 26.5495 71.5866 26.4825L71.4312 23.4808L71.3336 23.3814C70.166 23.6072 70.1384 23.6431 69.0601 23.7814L68.9761 23.8567C68.9643 23.8926 68.9643 23.932 68.9573 23.9749L68.9643 23.9902C69.0991 24.679 69.0667 24.5254 69.2019 25.6125C69.2649 26.146 69.3489 26.6825 69.412 27.2094C69.5183 28.0913 69.5778 28.5254 69.7078 29.8711C68.9796 31.0729 68.8072 31.5276 68.1061 32.5823L68.1109 32.5928L67.6172 33.3735C67.5608 33.4558 67.5096 33.5122 67.4378 33.5363C67.359 33.5753 67.2566 33.5823 67.1144 33.5823H66.8409L66.4343 34.9345L67.829 34.9586C68.6479 34.9551 69.1625 34.5722 69.4395 34.0575L70.3166 32.5547H70.3026L70.3949 32.4488C70.9848 31.1788 75.4723 23.4808 75.4723 23.4808ZM60.7518 41.2411H60.1601L62.35 33.9978H63.0765L63.3071 33.2516L63.3295 34.0814C63.3023 34.5943 63.7058 35.049 64.7658 34.9737H65.9916L66.4135 33.579H65.9522C65.687 33.579 65.564 33.512 65.5793 33.3685L65.557 32.5243H63.287V32.5286C62.5531 32.544 60.3614 32.5991 59.9177 32.7173C59.3807 32.8556 58.8148 33.2626 58.8148 33.2626L59.0371 32.5155H56.9137L56.4713 33.9978L54.252 41.3518H53.8214L53.3991 42.7365H57.6284L57.4866 43.1982H59.5706L59.7089 42.7365H60.2936L60.7518 41.2411ZM59.0166 35.4696C58.6765 35.5636 58.0437 35.849 58.0437 35.849L58.6065 33.9978H60.2936L59.8866 35.3466C59.8866 35.3466 59.3654 35.3772 59.0166 35.4696ZM59.049 38.1142C59.049 38.1142 58.519 38.1807 58.1702 38.2595C57.8266 38.3636 57.1824 38.6919 57.1824 38.6919L57.7636 36.7654H59.4595L59.049 38.1142ZM58.1037 41.2581H56.4113L56.9019 39.6323H58.589L58.1037 41.2581ZM62.1792 36.7654H64.6186L64.268 37.9006H61.7962L61.4251 39.1417H63.5879L61.9503 41.4476C61.8356 41.617 61.7328 41.677 61.6186 41.7247C61.5039 41.7829 61.3534 41.8511 61.1792 41.8511H60.5792L60.1669 43.2104H61.7363C62.552 43.2104 63.0339 42.8393 63.3897 42.3522L64.5126 40.8153L64.7538 42.3759C64.805 42.6682 65.0151 42.8393 65.1573 42.9058C65.3144 42.9846 65.4768 43.1198 65.7061 43.14C65.952 43.1505 66.1297 43.1588 66.2479 43.1588H67.019L67.482 41.6376H67.1778C67.0032 41.6376 66.7026 41.6083 66.6514 41.5535C66.6002 41.487 66.6002 41.3846 66.5726 41.2288L66.328 39.6647H65.3262L65.7656 39.1417H68.2325L68.612 37.9006H66.328L66.6838 36.7654H68.9608L69.3831 35.3654H62.5945L62.1792 36.7654ZM41.5761 41.5742L42.1455 39.6802H44.4855L44.9131 38.2714H42.5709L42.9284 37.1056H45.2173L45.6413 35.7415H39.9144L39.4991 37.1056H40.8002L40.4532 38.2714H39.1486L38.7162 39.7042H40.0168L39.258 42.2101C39.1556 42.5419 39.3061 42.6683 39.4015 42.8224C39.4991 42.9725 39.598 43.0718 39.8203 43.1283C40.0497 43.1795 40.2068 43.2101 40.4203 43.2101H43.0584L43.5284 41.6495L42.3591 41.8101C42.1332 41.8101 41.5079 41.783 41.5761 41.5742ZM41.8445 32.507L41.2515 33.5788C41.1246 33.8129 41.0104 33.9582 40.9076 34.0251C40.817 34.0816 40.6375 34.1052 40.3776 34.1052H40.0682L39.6546 35.4763H40.6822C41.1763 35.4763 41.5557 35.2952 41.7369 35.2046C41.9316 35.1004 41.9828 35.1599 42.1334 35.0146L42.4804 34.714H45.6892L46.115 33.2864H43.7662L44.1763 32.507H41.8445ZM46.5817 41.6018C46.527 41.523 46.5663 41.3843 46.6499 41.0954L47.527 38.1926H50.6469C51.1016 38.186 51.4298 38.1808 51.6433 38.1655C51.8727 38.1414 52.1221 38.0596 52.3939 37.9125C52.6744 37.7585 52.818 37.5961 52.9392 37.4097C53.0744 37.2237 53.2915 36.8167 53.4779 36.1891L54.5803 32.5156L51.3427 32.5344C51.3427 32.5344 50.3458 32.6815 49.9068 32.8438C49.4639 33.025 48.8311 33.5309 48.8311 33.5309L49.1234 32.5239H47.1235L44.3235 41.8101C44.2241 42.1707 44.1576 42.4324 44.1423 42.5895C44.137 42.7589 44.3559 42.9265 44.4977 43.053C44.6653 43.1794 44.913 43.1589 45.1506 43.1794C45.4005 43.1983 45.7559 43.2101 46.2464 43.2101H47.7834L48.2552 41.6171L46.8793 41.7471C46.7322 41.7471 46.6259 41.6683 46.5817 41.6018ZM48.0928 36.232H51.3698L51.1615 36.8849C51.1322 36.9003 51.0622 36.8526 50.7287 36.892H47.8911L48.0928 36.232ZM48.7493 34.0421H52.0538L51.8162 34.8285C51.8162 34.8285 50.2587 34.8132 50.0092 34.8591C48.9116 35.0491 48.2705 35.6355 48.2705 35.6355L48.7493 34.0421ZM51.2349 39.0715C51.2077 39.1691 51.1648 39.2286 51.1049 39.2733C51.0384 39.3161 50.9307 39.3315 50.7701 39.3315H50.3031L50.3307 38.5363H48.3885L48.3097 42.4238C48.3066 42.7043 48.3338 42.8667 48.539 42.9966C48.7443 43.159 49.3767 43.1796 50.2279 43.1796H51.4449L51.8843 41.7244L50.8248 41.7826L50.4725 41.8032C50.4244 41.7826 50.3784 41.7638 50.3272 41.7126C50.2826 41.6684 50.2073 41.6956 50.2195 41.415L50.2279 40.4185L51.339 40.3726C51.939 40.3726 52.1955 40.1774 52.4143 39.9914C52.623 39.8133 52.6913 39.6085 52.7701 39.3315L52.9565 38.4492H51.4296L51.2349 39.0715Z" fill="#FEFEFE"/>
</g>
<defs>
<clipPath id="clip0_3659_9560">
<rect width="90" height="60" fill="white"/>
</clipPath>
</defs>
</svg>
