<svg width="90" height="60" viewBox="0 0 90 60" fill="none" xmlns="http://www.w3.org/2000/svg">
<g clip-path="url(#clip0_3659_9535)">
<path d="M0 7.5C0 3.35786 3.35786 0 7.5 0H82.5C86.6421 0 90 3.35786 90 7.5V52.5C90 56.6421 86.6421 60 82.5 60H7.5C3.35786 60 0 56.6421 0 52.5V7.5Z" fill="#D8E3F3"/>
<path d="M77.4563 18.8154H72.7414C71.3159 18.8154 70.2194 19.254 69.5615 20.6795L60.5703 41.1838H66.93C66.93 41.1838 68.0265 38.4426 68.2458 37.7847C68.9036 37.7847 75.1536 37.7847 76.0308 37.7847C76.2501 38.5523 76.7984 41.0742 76.7984 41.0742H82.5001L77.4563 18.8154ZM70.0001 33.1795C70.5484 31.8637 72.4124 26.9295 72.4124 26.9295C72.4124 27.0391 72.9607 25.6137 73.18 24.8461L73.6186 26.8198C73.6186 26.8198 74.8247 32.1926 75.044 33.2891H70.0001V33.1795Z" fill="#3362AB"/>
<path d="M61.0084 33.8372C61.0084 38.4425 56.8418 41.5126 50.3725 41.5126C47.6312 41.5126 44.9997 40.9644 43.5742 40.3065L44.4514 35.2626L45.219 35.5916C47.1926 36.4688 48.5084 36.7977 50.9207 36.7977C52.6751 36.7977 54.5391 36.1398 54.5391 34.6047C54.5391 33.6179 53.7716 32.96 51.3593 31.8635C49.0567 30.767 45.9865 29.0126 45.9865 25.8328C45.9865 21.4469 50.2628 18.4863 56.2935 18.4863C58.5961 18.4863 60.5698 18.9249 61.776 19.4732L60.8988 24.2977L60.4602 23.8591C59.3637 23.4205 57.9383 22.9819 55.8549 22.9819C53.5523 23.0916 52.4558 24.0784 52.4558 24.9556C52.4558 25.9425 53.7716 26.71 55.8549 27.6969C59.3637 29.3416 61.0084 31.2056 61.0084 33.8372Z" fill="#3362AB"/>
<path d="M7.5 19.0343L7.60965 18.5957H17.0395C18.3553 18.5957 19.3421 19.0343 19.6711 20.4597L21.7544 30.3282C19.6711 25.065 14.8465 20.7887 7.5 19.0343Z" fill="#F9B50B"/>
<path d="M35.0225 18.8157L25.483 41.0745H19.0137L13.5312 22.4341C17.4786 24.9561 20.7681 28.9034 21.9742 31.6447L22.6321 33.9473L28.5532 18.7061H35.0225V18.8157Z" fill="#3362AB"/>
<path d="M37.5448 18.7061H43.5755L39.7377 41.0745H33.707L37.5448 18.7061Z" fill="#3362AB"/>
</g>
<defs>
<clipPath id="clip0_3659_9535">
<rect width="90" height="60" fill="white"/>
</clipPath>
</defs>
</svg>
