<svg width="90" height="60" viewBox="0 0 90 60" fill="none" xmlns="http://www.w3.org/2000/svg">
<g clip-path="url(#clip0_3659_9573)">
<path d="M0 7.5C0 3.35786 3.35786 0 7.5 0H82.5C86.6421 0 90 3.35786 90 7.5V52.5C90 56.6421 86.6421 60 82.5 60H7.5C3.35786 60 0 56.6421 0 52.5V7.5Z" fill="#D1EAFA"/>
<path d="M51.0869 29.1304L46.1956 23.8043L40.7608 28.587L45.6521 34.0217L51.0869 29.1304Z" fill="#137ABE"/>
<path d="M36.8477 19.4565L41.739 24.7826L47.1738 20L42.2825 14.6739L36.8477 19.4565Z" fill="#137ABE"/>
<path d="M54.8912 38.3696L49.9999 33.0435L44.5651 37.9348L49.4564 43.2609L54.8912 38.3696Z" fill="#137ABE"/>
<path d="M49.239 47.2826L40.326 37.3913L42.826 35.2174L36.5217 28.2609L39.0217 26.087L32.7173 19.1304L42.6086 10.3261L45.7608 13.6957L51.1956 9.02174L54.3477 12.2826L56.413 10.4348C55.9782 10.2174 55.4347 9.8913 54.9999 9.67391C51.8477 8.36957 48.4782 7.5 44.8912 7.5C32.3912 7.5 22.1738 17.6087 22.1738 30C22.1738 42.3913 32.3912 52.5 44.9999 52.5C49.1303 52.5 52.9347 51.413 56.1956 49.5652C57.2825 48.913 58.2608 48.2609 59.239 47.6087L54.6738 42.5L49.239 47.2826Z" fill="#137ABE"/>
<path d="M46.8477 16.8478L50.4347 20.8696L54.5651 17.2826L50.8695 13.2609L46.8477 16.8478Z" fill="#137ABE"/>
<path d="M58.2608 25.3261L54.5651 21.3043L50.5434 25L54.239 28.913L58.2608 25.3261Z" fill="#137ABE"/>
<path d="M61.739 33.8043L58.0434 29.7826L54.0216 33.3696L57.7173 37.5L61.739 33.8043Z" fill="#137ABE"/>
<path d="M61.9564 20.5435L59.239 22.9348L61.739 25.6522L64.3477 23.2609L61.9564 20.5435Z" fill="#137ABE"/>
<path d="M62.7173 30.8696L65.1086 33.587L67.826 31.1957L65.326 28.4783L62.7173 30.8696Z" fill="#137ABE"/>
<path d="M55.7608 15L58.2608 17.7174L60.8695 15.3261L58.4782 12.6087L55.7608 15Z" fill="#137ABE"/>
<path d="M57.6086 41.5217L61.3043 45.5435L65.326 41.9565L61.6303 37.9348L57.6086 41.5217Z" fill="#137ABE"/>
</g>
<defs>
<clipPath id="clip0_3659_9573">
<rect width="90" height="60" fill="white"/>
</clipPath>
</defs>
</svg>
